<?xml version="1.0" encoding="utf-8"?>
<!-- Generator: Adobe Illustrator 26.0.2, SVG Export Plug-In . SVG Version: 6.00 Build 0)  -->
<svg version="1.1" id="Layer_1" xmlns="http://www.w3.org/2000/svg" xmlns:xlink="http://www.w3.org/1999/xlink" x="0px" y="0px"
	 viewBox="0 0 28.35 28.35" style="enable-background:new 0 0 28.35 28.35;" xml:space="preserve">
<style type="text/css">
	.st0{fill:#FFFFFF;stroke:#231F20;stroke-width:0.25;stroke-miterlimit:10;}
	.st1{fill:#FFFFFF;stroke:#231F20;stroke-miterlimit:10;}
	.st2{fill:#FFFFFF;stroke:#231F20;stroke-linecap:round;stroke-miterlimit:10;}
</style>
<g>
	<path class="st0" d="M15.28,7.86c0,0-1.01-0.24-1.59,0.25c-0.95,0.81-1,1.56-0.65,2.65c0.35,1.1,0.96,1.4,0.96,1.4l3.13-1
		c0,0,1.07,0.06,1.33-1.04c0.16-0.69-0.26-1.13-0.26-1.13l-1.16,1.55l-2.67,0.8l-0.79-1.48L13.93,9L15.28,7.86z"/>
	<polyline class="st0" points="14.1,10.47 15.04,10.65 15.3,9.8 15.86,10.21 16.02,9.57 16.62,10.14 16.85,9.1 17.15,9.49 
		17.44,9.11 17.8,9.53 	"/>
	<polyline class="st0" points="14.38,10.79 14.12,9.53 14.75,9.56 14.83,8.6 15.48,9.01 15.26,8.31 15.77,8.44 15.32,7.97 	"/>
</g>
<path class="st1" d="M13.58,5.02l-2.74,1.2c-0.32,0.14-0.69-0.01-0.83-0.33l0,0c-0.35-0.79,0.01-1.72,0.81-2.07l1.02-0.45
	c0.79-0.35,1.72,0.01,2.07,0.81l0,0C14.05,4.51,13.9,4.88,13.58,5.02z"/>
<path class="st1" d="M18.71,4.42L6.47,9.78C6.15,9.92,5.78,9.77,5.64,9.45l0,0C5.29,8.66,5.65,7.73,6.45,7.38l10.52-4.61
	c0.79-0.35,1.72,0.01,2.07,0.81l0,0C19.18,3.9,19.03,4.28,18.71,4.42z"/>
<path class="st1" d="M17.85,23.98h-7.62c-0.13,0-0.24-0.11-0.24-0.24l-1-12.72c0-0.13,0.11-0.24,0.24-0.24h9.62
	c0.13,0,0.24,0.11,0.24,0.24l-1,12.72C18.09,23.88,17.98,23.98,17.85,23.98z"/>
<line class="st2" x1="11.31" y1="13.83" x2="11.97" y2="22.25"/>
<line class="st2" x1="14.04" y1="13.83" x2="14.04" y2="22.25"/>
<line class="st2" x1="16.68" y1="13.83" x2="16.1" y2="22.25"/>
</svg>
