<?xml version="1.0" encoding="utf-8"?>
<!-- Generator: Adobe Illustrator 26.0.2, SVG Export Plug-In . SVG Version: 6.00 Build 0)  -->
<svg version="1.1" id="Layer_1" xmlns="http://www.w3.org/2000/svg" xmlns:xlink="http://www.w3.org/1999/xlink" x="0px" y="0px"
	 viewBox="0 0 28.35 28.35" style="enable-background:new 0 0 28.35 28.35;" xml:space="preserve">
<style type="text/css">
	.st0{fill:#FFFFFF;stroke:#231F20;stroke-miterlimit:10;}
	.st1{fill:#FFFFFF;stroke:#231F20;stroke-linecap:round;stroke-miterlimit:10;}
</style>
<path class="st0" d="M15.54,9.29h-2.99c-0.35,0-0.63-0.28-0.63-0.63v0c0-0.87,0.7-1.57,1.57-1.57h1.12c0.87,0,1.57,0.7,1.57,1.57v0
	C16.17,9.01,15.89,9.29,15.54,9.29z"/>
<path class="st0" d="M20.48,10.79H7.12c-0.35,0-0.63-0.28-0.63-0.63v0c0-0.87,0.7-1.57,1.57-1.57h11.49c0.87,0,1.57,0.7,1.57,1.57v0
	C21.11,10.51,20.83,10.79,20.48,10.79z"/>
<path class="st0" d="M17.85,23.98h-7.62c-0.13,0-0.24-0.11-0.24-0.24l-1-12.72c0-0.13,0.11-0.24,0.24-0.24h9.62
	c0.13,0,0.24,0.11,0.24,0.24l-1,12.72C18.09,23.88,17.98,23.98,17.85,23.98z"/>
<line class="st1" x1="11.31" y1="13.83" x2="11.97" y2="22.25"/>
<line class="st1" x1="14.04" y1="13.83" x2="14.04" y2="22.25"/>
<line class="st1" x1="16.68" y1="13.83" x2="16.1" y2="22.25"/>
</svg>
